HIERARCHY
ROOT Hips
{
	OFFSET 0.00000 0.00000 0.00000
	CHANNELS 6 Xposition Yposition Zposition Zrotation Yrotation Xrotation 
	JOINT LHipJoint
	{
		OFFSET 0 0 0
		CHANNELS 3 Zrotation Yrotation Xrotation
		JOINT LeftUpLeg
		{
			OFFSET 1.57093 -1.69714 0.87455
			CHANNELS 3 Zrotation Yrotation Xrotation
			JOINT LeftLeg
			{
				OFFSET 2.48056 -6.81529 0.00000
				CHANNELS 3 Zrotation Yrotation Xrotation
				JOINT LeftFoot
				{
					OFFSET 2.62558 -7.21374 0.00000
					CHANNELS 3 Zrotation Yrotation Xrotation
					JOINT LeftToeBase
					{
						OFFSET 0.17911 -0.49210 2.16707
						CHANNELS 3 Zrotation Yrotation Xrotation
						End Site
						{
							OFFSET 0.00000 -0.00000 1.11848
						}
					}
				}
			}
		}
	}
	JOINT RHipJoint
	{
		OFFSET 0 0 0
		CHANNELS 3 Zrotation Yrotation Xrotation
		JOINT RightUpLeg
		{
			OFFSET -1.69739 -1.69715 0.87455
			CHANNELS 3 Zrotation Yrotation Xrotation
			JOINT RightLeg
			{
				OFFSET -2.33658 -6.41972 0.00000
				CHANNELS 3 Zrotation Yrotation Xrotation
				JOINT RightFoot
				{
					OFFSET -2.60856 -7.16696 0.00000
					CHANNELS 3 Zrotation Yrotation Xrotation
					JOINT RightToeBase
					{
						OFFSET -0.20854 -0.57296 2.11053
						CHANNELS 3 Zrotation Yrotation Xrotation
						End Site
						{
							OFFSET -0.00000 -0.00000 1.09848
						}
					}
				}
			}
		}
	}
	JOINT LowerBack
	{
		OFFSET 0 0 0
		CHANNELS 3 Zrotation Yrotation Xrotation
		JOINT Spine
		{
			OFFSET 0.02563 2.15732 -0.03270
			CHANNELS 3 Zrotation Yrotation Xrotation
			JOINT Spine1
			{
				OFFSET 0.00281 2.14662 0.09285
				CHANNELS 3 Zrotation Yrotation Xrotation
				JOINT Neck
				{
					OFFSET 0 0 0
					CHANNELS 3 Zrotation Yrotation Xrotation
					JOINT Neck1
					{
						OFFSET -0.04440 1.68397 0.17601
						CHANNELS 3 Zrotation Yrotation Xrotation
						JOINT Head
						{
							OFFSET 0.06040 1.66995 -0.35615
							CHANNELS 3 Zrotation Yrotation Xrotation
							End Site
							{
								OFFSET 0.02405 1.72189 -0.14044
							}
						}
					}
				}
				JOINT LeftShoulder
				{
					OFFSET 0 0 0
					CHANNELS 3 Zrotation Yrotation Xrotation
					JOINT LeftArm
					{
						OFFSET 2.98955 1.90907 -0.21660
						CHANNELS 3 Zrotation Yrotation Xrotation
						JOINT LeftForeArm
						{
							OFFSET 4.91377 -0.00000 0.00000
							CHANNELS 3 Zrotation Yrotation Xrotation
							JOINT LeftHand
							{
								OFFSET 3.00291 -0.00000 -0.00000
								CHANNELS 3 Zrotation Yrotation Xrotation
								JOINT LeftFingerBase
								{
									OFFSET 0 0 0
									CHANNELS 3 Zrotation Yrotation Xrotation
									JOINT LeftHandIndex1
									{
										OFFSET 0.45092 -0.00000 -0.00000
										CHANNELS 3 Zrotation Yrotation Xrotation
										End Site
										{
											OFFSET 0.36355 -0.00000 -0.00000
										}
									}
								}
								JOINT LThumb
								{
									OFFSET 0 0 0
									CHANNELS 3 Zrotation Yrotation Xrotation
									End Site
									{
										OFFSET 0.36910 -0.00000 0.36910
									}
								}
							}
						}
					}
				}
				JOINT RightShoulder
				{
					OFFSET 0 0 0
					CHANNELS 3 Zrotation Yrotation Xrotation
					JOINT RightArm
					{
						OFFSET -2.80452 1.90886 -0.21152
						CHANNELS 3 Zrotation Yrotation Xrotation
						JOINT RightForeArm
						{
							OFFSET -4.86725 -0.00000 0.00000
							CHANNELS 3 Zrotation Yrotation Xrotation
							JOINT RightHand
							{
								OFFSET -3.17144 -0.00000 -0.00000
								CHANNELS 3 Zrotation Yrotation Xrotation
								JOINT RightFingerBase
								{
									OFFSET 0 0 0
									CHANNELS 3 Zrotation Yrotation Xrotation
									JOINT RightHandIndex1
									{
										OFFSET -0.41937 -0.00000 -0.00000
										CHANNELS 3 Zrotation Yrotation Xrotation
										End Site
										{
											OFFSET -0.33810 -0.00000 -0.00000
										}
									}
								}
								JOINT RThumb
								{
									OFFSET 0 0 0
									CHANNELS 3 Zrotation Yrotation Xrotation
									End Site
									{
										OFFSET -0.34327 -0.00000 0.34327
									}
								}
							}
						}
					}
				}
			}
		}
	}
}
MOTION
Frames: 11
Frame Time: .0083333
1.8053 15.0574 7.9779 0 0 0 0 0 0 -21 0 0 0 0 0 0 0 0 0 0 0 0 0 0 21 0 0 0 0 0 0 0 0 0 0 0 0 0 0 0 0 0 0 0 0 0 0 -16 0 0 21 0 0 11 0 0 0 -8 0 0 0 0 0 0 0 0 0 0 0 0 0 0 0 0 0 0 0 0 8 0 0 0 0 0 0 0 0 0 0 0 0 0 0 0 0 0
1.8053 15.0574 7.9779 -6.7133 -10.9360 107.3850 0.0000 0.0000 0.0000 -13.9758 -11.1494 -63.2734 4.7298 13.0729 39.6419 -1.3286 22.5445 -20.0279 0.3336 3.7118 10.2671 0.0000 0.0000 0.0000 -28.5800 22.0941 -83.9472 -1.1315 -6.7560 18.9945 0.3810 -12.2057 -10.4451 -0.0014 0.2383 -0.6547 23.0535 9.0051 -0.9872 -8.6809 12.6615 -6.3768 -21.5744 6.1074 0.5707 7.6958 -3.6263 -6.1160 3.0932 -8.1976 43.7494 -1.1475 -1.5711 16.9202 -0.0000 0.0000 0.0000 95.3390 -42.5681 -59.2957 19.4559 -29.9812 -5.2567 -0.0000 0.0000 -1.7631 11.5256 -0.2426 -0.0495 -7.1250 0.0000 -0.0000 -11.7635 29.6283 4.4957 -0.0000 0.0000 0.0000 -65.2708 40.6735 -56.2331 -23.7644 34.9141 -7.5713 0.0000 -0.0000 -13.0659 -26.5701 -18.1909 8.8737 7.1250 -0.0000 -0.0000 1.5117 -50.1475 -0.1918
1.8061 15.0561 7.9847 -6.7494 -10.9745 107.3680 0.0000 0.0000 0.0000 -13.7223 -11.2602 -63.2937 4.7133 13.0535 39.5691 -1.3473 22.7954 -20.4339 0.3530 3.8170 10.5623 0.0000 0.0000 0.0000 -28.4747 22.0589 -83.8909 -1.1276 -6.7448 18.9615 0.3673 -12.0212 -10.3473 -0.0025 0.3233 -0.8882 23.0521 9.0189 -0.9489 -8.6913 12.6880 -6.3639 -21.5861 6.1242 0.5802 7.7511 -3.6263 -6.1951 3.1264 -8.2428 43.8120 -1.1516 -1.5712 16.9781 0.0000 0.0000 0.0000 95.5578 -42.6483 -59.7949 19.4364 -29.9574 -5.2470 -0.0000 0.0000 -1.9339 11.5593 -0.1212 -0.0248 -7.1250 0.0000 -0.0000 -11.7517 29.7500 4.4561 0.0000 0.0000 0.0000 -65.1316 40.6614 -56.1178 -23.7955 34.9472 -7.5891 0.0000 -0.0000 -13.0827 -26.4578 -18.3997 8.9273 7.1250 -0.0000 -0.0000 1.6655 -50.3559 -0.2199
1.8071 15.0539 7.9911 -6.7876 -11.0401 107.3770 0.0000 0.0000 0.0000 -13.4848 -11.3839 -63.3520 4.6968 13.0340 39.4957 -1.3508 22.9825 -20.8728 0.4234 4.1765 11.5737 0.0000 0.0000 0.0000 -28.3834 22.0018 -83.8567 -1.1230 -6.7314 18.9221 0.3548 -11.8442 -10.2386 -0.0033 0.3707 -1.0185 23.0178 9.0310 -0.9419 -8.7095 12.7049 -6.3558 -21.5863 6.1369 0.5927 7.8068 -3.6105 -6.2542 3.1484 -8.2564 43.8484 -1.1559 -1.5624 17.0151 0.0000 0.0000 0.0000 95.7380 -42.7371 -60.2975 19.4203 -29.9375 -5.2389 -0.0000 0.0000 -2.0718 11.5916 -0.1106 -0.0227 -7.1250 0.0000 -0.0000 -11.7279 29.7611 4.4436 0.0000 0.0000 0.0000 -64.9764 40.6773 -55.9667 -23.8323 34.9864 -7.6102 0.0000 -0.0000 -13.2576 -26.5572 -18.3122 8.9250 7.1250 -0.0000 -0.0000 1.5488 -50.2775 -0.2015
1.8078 15.0528 8.0015 -6.7956 -11.0619 107.3540 0.0000 0.0000 0.0000 -13.1402 -11.5746 -63.3674 4.6785 13.0124 39.4148 -1.2933 22.9851 -21.5978 0.4939 4.5060 12.5049 0.0000 0.0000 0.0000 -28.2648 21.9847 -83.7836 -1.1193 -6.7206 18.8902 0.3485 -11.7472 -10.1658 -0.0043 0.4253 -1.1685 23.0827 8.9958 -0.9157 -8.7131 12.6617 -6.3294 -21.6414 6.1161 0.5971 7.8312 -3.5446 -6.2645 3.1577 -8.1774 43.8383 -1.1462 -1.5289 17.0142 0.0000 -0.0000 0.0000 95.7014 -42.7746 -60.4330 19.4340 -29.9544 -5.2458 -0.0000 0.0000 -2.2239 11.6145 -0.0705 -0.0145 -7.1250 0.0000 -0.0000 -11.7149 29.8016 4.4269 0.0000 -0.0000 0.0000 -65.0021 40.6773 -55.9640 -23.8557 35.0112 -7.6236 0.0000 -0.0000 -13.4895 -26.5618 -18.3710 8.9540 7.1250 -0.0000 -0.0000 1.5560 -50.3424 -0.2049
1.8086 15.0513 8.0110 -6.8010 -11.1005 107.3200 0.0000 0.0000 0.0000 -12.8231 -11.7657 -63.3641 4.6592 12.9894 39.3288 -1.2594 23.0688 -22.1990 0.5691 4.8316 13.4288 0.0000 0.0000 0.0000 -28.1646 21.9586 -83.7016 -1.1166 -6.7130 18.8677 0.3407 -11.6349 -10.1006 -0.0058 0.4901 -1.3468 23.1120 8.9763 -0.8828 -8.7200 12.6412 -6.3060 -21.6765 6.1078 0.6009 7.8694 -3.4956 -6.2694 3.1966 -8.1353 43.8262 -1.1305 -1.5042 17.0125 -0.0000 0.0000 0.0000 95.7632 -42.8352 -60.7131 19.4358 -29.9566 -5.2467 -0.0000 0.0000 -2.3513 11.6428 -0.0301 -0.0062 -7.1250 0.0000 -0.0000 -11.6978 29.8424 4.4086 -0.0000 0.0000 0.0000 -64.9524 40.6894 -55.9174 -23.8835 35.0408 -7.6395 0.0000 -0.0000 -13.5977 -26.5194 -18.4664 8.9818 7.1250 -0.0000 -0.0000 1.6178 -50.4388 -0.2169
1.8095 15.0497 8.0216 -6.7936 -11.1467 107.2770 0.0000 0.0000 0.0000 -12.4939 -11.9919 -63.3429 4.6375 12.9636 39.2323 -1.2194 23.1405 -22.8161 0.6579 5.1877 14.4447 0.0000 0.0000 0.0000 -28.0833 21.9326 -83.6071 -1.1150 -6.7081 18.8535 0.3346 -11.5473 -10.0518 -0.0077 0.5674 -1.5593 23.1391 8.9525 -0.8511 -8.7283 12.6141 -6.2799 -21.7137 6.0963 0.6048 7.9103 -3.4413 -6.2570 3.2367 -8.0829 43.7995 -1.1128 -1.4763 16.9981 -0.0000 -0.0000 0.0000 95.8157 -42.8894 -60.9738 19.4496 -29.9736 -5.2536 -0.0000 0.0000 -2.5220 11.6720 0.0070 0.0014 -7.1250 0.0000 -0.0000 -11.6796 29.8798 4.3908 -0.0000 -0.0000 0.0000 -64.9111 40.7082 -55.8842 -23.9127 35.0718 -7.6563 0.0000 -0.0000 -13.6614 -26.4512 -18.5953 9.0148 7.1250 -0.0000 -0.0000 1.7125 -50.5675 -0.2350
1.8104 15.0480 8.0331 -6.7750 -11.2016 107.2320 0.0000 0.0000 0.0000 -12.1512 -12.2565 -63.3132 4.6148 12.9364 39.1307 -1.1797 23.2266 -23.4362 0.7543 5.5472 15.4762 0.0000 0.0000 0.0000 -28.0278 21.9026 -83.5122 -1.1153 -6.7090 18.8562 0.3294 -11.4786 -10.0236 -0.0104 0.6596 -1.8127 23.1629 8.9270 -0.8259 -8.7400 12.5834 -6.2537 -21.7531 6.0834 0.6107 7.9569 -3.3878 -6.2398 3.2651 -8.0274 43.7727 -1.1006 -1.4475 16.9812 0.0000 0.0000 0.0000 95.8705 -42.9387 -61.2410 19.4805 -30.0114 -5.2690 -0.0000 0.0000 -2.7798 11.7047 0.0473 0.0098 -7.1250 0.0000 -0.0000 -11.6589 29.9207 4.3711 0.0000 0.0000 0.0000 -64.8756 40.7356 -55.8657 -23.9422 35.1031 -7.6733 0.0000 -0.0000 -13.6684 -26.3609 -18.7549 9.0529 7.1250 -0.0000 -0.0000 1.8365 -50.7254 -0.2592
1.8114 15.0461 8.0453 -6.7468 -11.2672 107.1900 0.0000 0.0000 0.0000 -11.7998 -12.5570 -63.2826 4.5912 12.9081 39.0255 -1.1424 23.3350 -24.0553 0.8603 5.9148 16.5375 0.0000 0.0000 0.0000 -27.9994 21.8649 -83.4189 -1.1170 -6.7140 18.8708 0.3253 -11.4264 -10.0116 -0.0140 0.7644 -2.1006 23.1818 8.9007 -0.8106 -8.7563 12.5494 -6.2287 -21.7945 6.0693 0.6193 8.0072 -3.3368 -6.2303 3.2768 -7.9712 43.7540 -1.0967 -1.4190 16.9693 -0.0000 -0.0000 0.0000 95.9306 -42.9876 -61.5404 19.5293 -30.0710 -5.2934 -0.0000 0.0000 -3.1348 11.7426 0.0866 0.0180 -7.1250 0.0000 -0.0000 -11.6342 29.9605 4.3502 -0.0000 -0.0000 0.0000 -64.8441 40.7732 -55.8602 -23.9717 35.1343 -7.6903 0.0000 -0.0000 -13.6316 -26.2701 -18.9069 9.0867 7.1250 -0.0000 -0.0000 1.9601 -50.8744 -0.2838
1.8127 15.0440 8.0581 -6.7137 -11.3390 107.1620 0.0000 0.0000 0.0000 -11.4329 -12.8904 -63.2638 4.5674 12.8794 38.9189 -1.1037 23.4635 -24.7061 0.9753 6.2870 17.6195 0.0000 0.0000 0.0000 -27.9905 21.8173 -83.3389 -1.1198 -6.7221 18.8948 0.3219 -11.3851 -10.0044 -0.0185 0.8781 -2.4133 23.2000 8.8743 -0.8118 -8.7776 12.5119 -6.2081 -21.8398 6.0537 0.6315 8.0563 -3.2867 -6.2361 3.2718 -7.9134 43.7534 -1.1002 -1.3904 16.9703 -0.0000 0.0000 0.0000 95.9898 -43.0386 -61.8684 19.5969 -30.1536 -5.3274 -0.0000 0.0000 -3.5961 11.7846 0.1261 0.0263 -7.1250 0.0000 -0.0000 -11.6063 30.0007 4.3280 -0.0000 0.0000 0.0000 -64.8234 40.8210 -55.8677 -23.9996 35.1639 -7.7063 0.0000 -0.0000 -13.5753 -26.2091 -19.0321 9.1195 7.1250 -0.0000 -0.0000 2.0487 -50.9995 -0.3029
1.8140 15.0416 8.0714 -6.6764 -11.4186 107.1440 0.0000 0.0000 0.0000 -11.0521 -13.2567 -63.2510 4.5435 12.8506 38.8116 -1.0562 23.5962 -25.4247 1.1004 6.6655 18.7280 0.0000 0.0000 0.0000 -27.9896 21.7583 -83.2679 -1.1237 -6.7333 18.9277 0.3188 -11.3458 -9.9960 -0.0238 0.9953 -2.7358 23.2132 8.8482 -0.8263 -8.8033 12.4722 -6.1914 -21.8863 6.0372 0.6457 8.1067 -3.2405 -6.2569 3.2471 -7.8573 43.7703 -1.1134 -1.3628 16.9834 0.0000 0.0000 0.0000 96.0505 -43.1077 -62.2340 19.6658 -30.2376 -5.3620 -0.0000 0.0000 -4.0763 11.8289 0.1622 0.0340 -7.1250 0.0000 -0.0000 -11.5761 30.0376 4.3059 0.0000 0.0000 0.0000 -64.8122 40.8757 -55.8836 -24.0247 35.1904 -7.7208 0.0000 -0.0000 -13.5089 -26.1772 -19.1429 9.1572 7.1250 -0.0000 -0.0000 2.1053 -51.1140 -0.3172
